<svg width="959" height="801" viewBox="0 0 959 801" fill="none" xmlns="http://www.w3.org/2000/svg">
<g clip-path="url(#clip0_210_2)">
<path d="M403.2 3.39981C398 6.19981 389.6 15.6665 379.333 30.7331L377.333 33.6665L363.066 28.9998C347.466 23.9331 339.2 23.2665 331.6 26.3331C321.733 30.5998 319.066 34.4665 312.666 54.3331C310.266 61.6665 307.6 68.0665 306.8 68.5998C306 69.1331 297.866 69.6665 288.533 69.6665C272.4 69.6665 271.733 69.7998 265.6 73.6665C261.333 76.3331 258.4 79.5331 256 84.1998C252.933 90.3331 252.666 92.3331 252.666 107.533V124.066L239.733 128.466C218.533 135.4 213.6 138.733 209.333 148.6C206.266 156.2 206.933 163 212.133 179.266L216.933 194.2L213.866 196.333C191.333 211.266 183.466 220.466 183.333 232.066C183.333 239.8 185.866 245.266 196 259.133L204.8 271L195.6 284.066C190.666 291.133 185.733 298.733 184.933 300.733C181.733 308.333 184 320.866 189.733 327.533C191.066 328.866 197.6 334.066 204.4 339.133C211.066 344.2 216.666 348.466 216.666 348.733C216.666 349 214.533 355.666 212 363.533C206.8 379.666 206.266 386.6 209.866 394.333C213.866 403.266 220.266 407.666 237.2 413.133L252.533 417.933L252.933 436.333C253.333 454.466 253.466 454.866 257.333 460.6C259.6 463.8 264.133 467.8 267.333 469.533C272.4 472.467 275.333 472.867 290.8 473.4L308.4 474.067L312.8 488.467C317.6 504.6 321.733 510.733 330.266 515.133C338 519.133 346.8 518.6 363.2 513.133L377.066 508.6L387.2 522.067C398.8 537.533 404.8 541.667 415.6 541.667C424 541.667 429.066 539.4 441.333 530.333C446.933 526.2 452.4 522.467 453.333 522.2C454.4 521.8 460.133 525 466.266 529.4C481.2 540.333 484.133 541.667 492.533 541.667C504.666 541.667 510.133 538.067 521.6 522.333L531.6 508.733L541.733 512.067C565.066 519.667 571.866 519.8 582.133 513C588.666 508.733 591.6 503.533 596.533 487.533L600.666 474.067L618.4 473.4C638.533 472.733 644.533 470.6 650.666 461.666C655.6 454.6 656.666 449.4 656.666 432.733V417.933L671.733 413C689.333 407.266 694.533 403.666 698.8 394.466C703.066 385.4 702.8 381.933 697.333 364.733C694.8 356.866 692.666 349.666 692.666 349C692.8 348.2 698.8 343.266 706.133 337.933C717.466 329.666 720 327.266 722.8 321.266C728.4 309 726.666 301.533 713.733 284.066C709.733 278.733 706 273.533 705.466 272.6C704.8 271.533 707.866 266.2 713.866 257.933C725.466 241.666 727.466 235.533 724.266 225.266C721.6 217 717.6 212.466 703.2 202.2C697.466 197.933 692.666 193.933 692.666 193.266C692.666 192.466 694.8 185.266 697.466 177.133C702.933 160.2 702.933 154.333 697.333 144.866C693.066 137.666 687.6 134.333 670.933 128.866L657.333 124.466L656.666 106.733C656 90.0665 655.733 88.5998 652.133 82.9998C650 79.5331 646.133 75.3998 643.466 73.6665C639.066 70.5998 637.066 70.3331 620 69.6665L601.333 68.9998L596 53.6665C589.6 35.6665 588.266 33.3998 581.6 28.7331C573.6 23.1331 564 22.9998 547.733 28.3331C540.533 30.5998 534 32.7331 533.066 32.9998C532.133 33.2665 527.066 27.5331 521.866 20.3331C510.933 5.39981 503.733 0.333142 493.066 0.333142C485.2 0.333142 479.6 2.86648 466 12.8665L454.4 21.2665L442.533 12.5998C436 7.93314 428.8 3.13314 426.4 2.19981C419.733 -0.600191 410 -0.200191 403.2 3.39981ZM426.933 5.93314C434.533 10.0665 451.333 22.0665 450.933 23.2665C450.8 23.6665 443.6 29.2665 434.933 35.6665L419.066 47.1331L400.266 40.9998C389.866 37.5331 381.066 34.5998 380.933 34.3331C380.666 34.0665 384.666 28.0665 390 20.9998C397.2 11.1331 400.8 7.53314 405.066 5.66648C412.533 2.19981 420.133 2.33314 426.933 5.93314ZM506.533 7.13314C509.066 8.86648 515.066 15.7998 519.866 22.3331L528.666 34.3331L509.333 40.7331L490 47.2665L474 35.5331C465.2 29.1331 458 23.5331 458 22.9998C458 21.6665 478.533 7.26648 483.6 4.86648C490 2.06648 500.933 3.13314 506.533 7.13314ZM484.133 48.5998C483.333 48.9998 476.4 51.5331 468.666 53.9331L454.533 58.5998L439.6 53.7998C431.466 51.1331 424.533 48.5998 424.4 48.0665C424.133 47.3998 430.933 42.0665 439.333 35.9331L454.533 24.8665L470.133 36.1998C479.2 42.8665 485.066 48.0665 484.133 48.5998ZM361.066 31.3998C368.266 33.7998 374.266 36.1998 374.266 36.7331C374.133 37.2665 369.066 44.9998 362.666 53.7998L351.2 69.6665H331.2C319.066 69.6665 311.333 69.1331 311.333 68.3331C311.333 64.3331 320.133 40.3331 322.933 36.4665C327.066 31.1331 335.466 26.9998 342.666 27.1331C345.6 27.1331 353.866 28.9998 361.066 31.3998ZM577.6 29.7998C580.666 31.2665 584.533 34.3331 586.133 36.4665C589.733 41.5331 598.266 67.2665 596.933 68.5998C596.266 69.2665 587.2 69.5331 576.533 69.3998L557.333 68.9998L545.733 52.9998C539.333 44.1998 534 36.7331 534 36.3331C534 34.7331 560.266 27.2665 565.866 27.1331C569.466 26.9998 574.133 28.0665 577.6 29.7998ZM398.666 43.3998L415.866 49.1331L402 59.3998L388.133 69.6665H372.4C360.666 69.6665 356.666 69.2665 356.666 67.9331C356.8 65.3998 377.733 37.6665 379.6 37.6665C380.533 37.6665 389.066 40.3331 398.666 43.3998ZM541.333 51.7998C546.933 59.5331 551.866 66.7331 552.266 67.7998C552.8 69.3998 550.133 69.6665 537.066 69.6665H521.066L507.6 59.9331C500.133 54.7331 494 49.9331 494 49.5331C494 48.5998 525.6 37.9331 528.933 37.7998C530.266 37.6665 534.933 42.9998 541.333 51.7998ZM435.333 55.5331C443.2 58.0665 448.4 60.4665 447.333 60.8665C431.733 66.8665 419.066 69.6665 407.733 69.6665C400.933 69.6665 395.333 69.2665 395.333 68.5998C395.333 67.3998 418.133 50.9998 420 50.9998C420.666 50.9998 427.6 53.1331 435.333 55.5331ZM501.733 59.1331C507.733 63.6665 512.666 67.7998 512.666 68.4665C512.666 69.1331 507.066 69.6665 500.266 69.6665C488.666 69.6665 476.266 66.8665 462 60.8665C460 60.0665 484.4 51.1331 488.666 51.1331C489.733 51.1331 495.6 54.7331 501.733 59.1331ZM463.6 64.5998C468.533 66.1998 472.666 68.0665 472.666 68.5998C472.666 69.1331 464.533 69.6665 454.666 69.6665C444.666 69.6665 436.666 69.1331 436.666 68.4665C436.666 67.5331 447.333 63.3998 453.866 61.7998C454.266 61.6665 458.533 62.9998 463.6 64.5998ZM516.4 81.6665C532.266 86.8665 546 91.5331 546.933 92.0665C553.866 96.3331 599.2 130.2 599.733 131.4C600.133 132.333 608 143.4 617.2 156.066L634.133 179.133L644 209.533L654 239.933V271.133V302.333L644.133 332.466L634.4 362.6L616.133 387.8L597.866 413L570.933 432.6C556.133 443.533 543.466 452.333 542.8 452.333C542 452.333 529.2 456.333 514.266 461.133L487.066 469.933L453.866 469.8C426.933 469.8 419.466 469.4 414.4 467.667C410.8 466.466 397.866 462.2 385.466 458.2L362.933 450.866L337.333 432.333L311.6 413.666L292.666 387.533C282.266 373.133 273.2 359.533 272.666 357.266C272 354.866 267.866 341.933 263.466 328.333L255.333 303.666V271V238.333L265.066 209L274.666 179.533L293.333 153.933L311.866 128.333L337.866 109.533C361.733 92.3331 364.933 90.4665 376 86.9998C382.533 84.8665 396.133 80.5998 406 77.3998L424 71.6665L455.733 71.9331L487.466 72.1998L516.4 81.6665ZM306 73.2665C306 73.9331 303.333 82.4665 300.266 92.3331L294.533 110.333L276 116.6C265.733 119.933 256.8 122.866 256.266 122.866C255.6 123 255.333 115.266 255.6 105.933C256 89.7998 256.266 88.4665 259.6 83.2665C265.6 74.1998 270.533 72.4665 289.733 72.3331C298.666 72.3331 306 72.7331 306 73.2665ZM347.466 74.5998C346.666 75.9331 342.266 82.0665 337.733 88.1998L329.333 99.3998L314 104.333C305.6 107 298.533 109.133 298.266 108.866C297.733 108.6 308.4 75.1331 309.6 73.3998C309.866 72.7331 318.8 72.3331 329.466 72.3331C347.466 72.3331 348.666 72.4665 347.466 74.5998ZM382.666 73.5331C374.933 80.4665 360.4 88.9998 350.4 92.4665C344 94.5998 338 96.1998 337.066 96.0665C336.133 95.7998 339.333 90.4665 344.133 83.9331L352.8 72.3331H368.4C377.2 72.3331 383.333 72.8665 382.666 73.5331ZM393.333 78.4665C383.866 81.6665 375.466 84.0665 374.8 83.9331C374.133 83.6665 377.066 80.9998 381.466 77.9331C389.2 72.4665 389.6 72.3331 400 72.4665L410.666 72.5998L393.333 78.4665ZM527.6 77.9331C532 80.9998 535.066 83.7998 534.4 83.9331C533.866 84.1998 525.466 81.6665 516 78.4665L498.666 72.5998L509.066 72.4665C519.333 72.3331 519.733 72.4665 527.6 77.9331ZM564.666 83.7998C569.066 90.0665 572.533 95.5331 572.266 95.9331C571.866 96.1998 566.266 94.8665 559.866 92.8665C550.8 90.0665 545.333 87.3998 537.066 81.2665C530.933 76.8665 526 73.1331 526 72.8665C526 72.5998 532.8 72.3331 541.2 72.3331H556.4L564.666 83.7998ZM601.2 77.9331C605.333 89.5331 610.933 107.666 610.533 108.466C610.266 109 602.933 107 594.4 104.2L578.666 98.9998L570 86.7331C565.2 80.0665 561.2 74.0665 560.933 73.3998C560.666 72.8665 569.2 72.3331 579.733 72.3331H599.066L601.2 77.9331ZM639.866 74.9998C642.933 76.4665 647.2 80.1998 649.333 83.3998C653.2 88.8665 653.333 89.6665 653.866 106.066L654.266 123.133L650.8 122.2C648.933 121.8 640 118.866 631.066 115.933L614.666 110.333L612.266 103C610.933 98.9998 608.133 90.4665 606 83.9331L602.266 72.3331H618.4C631.866 72.3331 635.333 72.7331 639.866 74.9998ZM350.8 96.1998C350 97.2665 325.466 115.4 320.8 118.2C319.066 119.266 319.066 118.866 320.933 116.2C322.266 114.466 324.933 110.466 326.933 107.266C330.266 102.333 331.866 101.266 340.666 98.4665C346.133 96.5998 350.8 95.1331 351.066 95.1331C351.333 94.9998 351.2 95.5331 350.8 96.1998ZM582.933 109.133C586.133 113.4 588.4 117.133 588 117.4C587.466 117.933 559.866 98.1998 558.666 96.3331C558.266 95.7998 562.4 96.5998 567.733 98.3331C576.666 101.133 577.733 101.933 582.933 109.133ZM318 115.4C312 123.533 307.066 128.466 299.2 134.2C293.333 138.466 288.266 141.666 287.866 141.4C287.6 141 289.333 134.6 291.733 127L296.266 113.133L308.8 108.866C327.2 102.466 327.333 102.6 318 115.4ZM598.933 108.466L612.666 112.733L616.533 124.866C618.8 131.666 620.933 138.066 621.466 139.4C622.933 143.266 620.266 141.933 608.666 133.266C600.666 127.266 595.6 122.2 590.4 114.6C586.4 109 583.6 104.333 584.266 104.333C584.8 104.333 591.466 106.2 598.933 108.466ZM292.266 116.6C292 117.533 289.733 124.6 287.2 132.2L282.8 146.066L273.333 152.866C268.266 156.733 262 161.133 259.733 162.866L255.333 165.8V146.066V126.2L271.733 120.733C289.2 114.866 293.333 114.066 292.266 116.6ZM636.133 120.6L654 126.2V145.266C654 158.066 653.466 164.333 652.533 164.333C651.733 164.333 645.6 160.333 638.8 155.4L626.4 146.333L621.466 131.666C616.4 116.066 616.133 115 617.466 115C618 115 626.4 117.533 636.133 120.6ZM685.733 137.266C692.8 140.6 699.333 151.4 699.333 159.533C699.333 164.6 690.533 190.333 688.8 190.333C687.866 190.333 680.266 185.533 672 179.666L656.8 169V148.2L656.666 127.266L669.066 131.266C675.733 133.4 683.333 136.2 685.733 137.266ZM252.666 148.2V168.2L236.8 179.533C228 185.8 220.4 191 219.733 191C218 191 210 164.2 210 158.466C210 152.733 213.733 145 218.666 140.333C221.866 137.266 245.066 128.6 250.4 128.466C252.4 128.333 252.666 130.2 252.666 148.2ZM301.2 137.933C298.133 143.266 280.266 167 279.733 166.466C279.333 166.2 280.4 161.8 282 156.733C284.8 148.333 285.466 147.266 293.066 141.933C302 135.8 302.666 135.533 301.2 137.933ZM617.333 143.133C623.2 147.533 624.4 149.4 627.066 157.133C628.666 162.2 629.6 166.466 629.333 166.866C628.933 167.133 628.533 167.133 628.266 166.866C620.933 157.133 607.333 137.666 607.333 137C607.333 135.933 609.2 137 617.333 143.133ZM280 153.933C279.733 154.866 277.866 160.733 276 167C272.933 177 265.066 190.066 256.533 199.533C255.866 200.333 255.333 193.933 255.333 184.866L255.466 169L267.066 160.733C279.066 152.2 280.933 151.133 280 153.933ZM642 161.133L654 169.933V184.466C654 192.466 653.466 199 652.8 199C650.133 199 637.2 179.133 633.866 169.666C629.866 158.066 628.266 152.333 629.333 152.333C629.733 152.333 635.466 156.333 642 161.133ZM252.666 189.533V205.133L243.2 218.066C238 225.133 233.333 231 232.8 231C231.866 231 220.666 198.066 220.666 195.533C220.8 193.933 250.4 172.6 251.733 173.266C252.266 173.533 252.666 180.866 252.666 189.533ZM674 184.2C681.733 189.666 688.133 194.333 688.4 194.466C689.466 195.133 677.2 231 676 231C675.333 230.866 670.666 225.266 665.733 218.333L656.666 205.933V189C656.666 175.933 657.066 172.333 658.4 173.133C659.2 173.8 666.266 178.733 674 184.2ZM261.733 210.6L256 227.666L255.6 216.733L255.2 205.933L260.933 198.333C264 194.2 266.8 191.4 267.066 192.066C267.333 192.866 264.933 201.133 261.733 210.6ZM648.4 199C653.866 206.6 654 207.266 654 217.266C654 223.266 653.466 227 652.8 226.2C651.866 225.266 647.066 211 641.866 193.933C640.266 188.866 642.533 190.6 648.4 199ZM224.266 216.466C227.333 226.333 230 234.733 230 235.4C230 236.333 210 264.6 207.333 267.4C206.133 268.733 192.133 250.333 188.4 242.733C182.266 230.2 186.933 219.533 204 206.733C210.666 201.8 216.533 197.933 217.2 198.066C217.866 198.333 221.066 206.6 224.266 216.466ZM705.733 207.266C720.933 218.2 725.733 228.2 721.466 239.933C719.866 244.466 708.533 261.666 703.333 267.4C702.4 268.466 678.4 236.866 678.8 235.133C679.6 232.2 690.133 199.8 690.8 198.866C691.733 197.4 692 197.533 705.733 207.266ZM252.666 225.533C252.666 236.6 252 240.733 248.533 251.533C246.266 258.6 243.866 264.333 243.466 264.333C241.733 264.333 233.733 236.6 234.8 234.733C237.466 230.066 250.8 212.466 251.733 212.333C252.266 212.333 252.666 218.2 252.666 225.533ZM667.2 225L675.6 236.333L671.333 249.4C667.733 260.2 664.666 267 664.666 264.2C664.666 263.8 662.933 258.466 660.666 252.333C657.2 242.466 656.666 239.133 656.666 226.6C656.666 218.6 657.2 212.466 657.866 212.866C658.4 213.266 662.666 218.733 667.2 225ZM237.066 255.8L242.133 271.266L237.066 286.466C234.4 294.866 231.733 301.666 231.2 301.666C229.466 301.666 208.533 271.933 209.2 270.333C210.133 267.8 230.4 240.333 231.333 240.333C231.733 240.333 234.4 247.266 237.066 255.8ZM689.733 255.8L700.8 271.266L693.866 280.733C690 286.066 685.066 292.866 682.8 295.933C680.666 299.133 678.4 301.666 677.866 301.666C677.333 301.666 674.533 294.866 671.866 286.466L666.8 271.266L671.866 255.8C674.533 247.266 677.2 240.333 677.733 240.333C678.266 240.333 683.6 247.266 689.733 255.8ZM662.266 266.066C663.466 270.866 663.333 273.133 661.333 279.8C660 284.066 658.4 288.2 657.733 288.866C657.2 289.666 656.666 281.533 656.8 270.866C656.933 253.133 657.066 251.933 658.8 256.066C659.866 258.333 661.333 262.866 662.266 266.066ZM252.666 271C252.666 280.6 252.133 288.333 251.466 288.333C250.8 288.333 248.933 284.466 247.466 279.666L244.666 271L247.6 262.333C249.333 257.533 251.066 253.666 251.6 253.666C252.266 253.666 252.666 261.4 252.666 271ZM230 307.4C230 308.2 227.333 316.733 224.133 326.333C220.133 338.466 217.866 343.666 216.4 343.533C214.266 343.4 196 330.066 192.4 326.066C189.066 322.466 186 314.466 186 309.666C186 303.533 188.933 297.533 198.133 285L206.4 273.666L218.133 289.666C224.666 298.466 230 306.466 230 307.4ZM711.6 285.933C722.266 301 724.533 307.266 722 315.266C721.066 318.466 719.333 322.466 718 324.466C714.266 329.533 691.333 346.066 690.666 344.066C690.4 343.133 687.466 334.333 684.133 324.466L678.266 306.733L690.266 290.2C696.933 281.133 702.533 273.666 702.666 273.666C702.8 273.666 706.8 279.266 711.6 285.933ZM248.4 290.733C252 301.8 252.666 305.8 252.666 316.733C252.666 323.8 252.133 329.666 251.6 329.666C250.666 329.666 235.466 309.533 234.266 306.733C233.6 305.266 242.266 277.666 243.333 277.666C243.733 277.666 246 283.533 248.4 290.733ZM671.2 292.866L675.333 306.2L671.866 310.866C670 313.533 666.266 318.733 663.6 322.6C660.933 326.466 658.266 329.533 657.733 329.666C657.066 329.666 656.666 323.4 656.666 315.666C656.666 303.266 657.2 300.066 660.8 289.533C663.2 282.866 665.466 278.066 666 278.6C666.666 279.133 668.933 285.666 671.2 292.866ZM243.2 323.933L252.666 337V353.266C252.666 362.333 252.266 369.666 251.733 369.666C250.266 369.666 221.466 348.333 220.933 346.866C220.266 345.266 231.733 311 232.8 311C233.2 311 237.866 316.866 243.2 323.933ZM683.333 330.066C686.4 339.533 688.666 347.4 688.533 347.533C684.933 350.466 657.866 369.666 657.333 369.666C656.933 369.666 656.666 362.2 656.666 353V336.333L666.133 323.533C671.333 316.466 676 311.266 676.666 311.8C677.2 312.466 680.266 320.733 683.333 330.066ZM262.533 334.066C265.333 342.733 267.333 350.066 266.933 350.466C266.666 350.733 263.866 347.8 260.8 343.8C255.466 336.6 255.333 336.2 255.333 326.066C255.333 320.466 255.866 316.333 256.4 317C257.066 317.8 259.866 325.4 262.533 334.066ZM654 326.066C654 335.133 653.733 336.066 648.533 343.4C645.6 347.533 642.666 351 642 351C641.333 351 641.866 347.8 643.2 343.933C644.4 340.2 646.933 332.333 648.8 326.733C650.533 321 652.4 316.333 653.066 316.333C653.6 316.333 654 320.733 654 326.066ZM264.933 353.666C271.866 363.266 273.733 367.266 279.333 386.066C280.933 391 279.733 390.6 266.133 380.733L255.466 373L255.333 357.933C255.333 349.8 255.733 343 256.4 343.133C256.933 343.133 260.8 347.933 264.933 353.666ZM654 357.933L653.866 373L641.866 381.4C635.2 386.066 629.6 389.666 629.2 389.4C628.933 389 630.4 383.133 632.666 376.2C635.733 366.6 638.4 361.266 644.266 353.266C648.533 347.666 652.4 343 652.933 343C653.466 343 654 349.8 654 357.933ZM237.066 363L252.666 374.333V393.8C252.666 404.466 252.266 413.533 251.866 413.933C250.266 415.533 223.066 405.266 218.666 401.533C213.2 396.733 210 390.066 210 383.666C210 379.4 216.666 355.533 218.8 352.066C219.866 350.466 219.466 350.2 237.066 363ZM691.066 354.6C694.533 363.666 699.333 379.933 699.333 382.333C699.333 388.466 696.133 395.933 691.466 400.466C687.6 404.333 683.866 406.2 672.666 409.666C664.933 412.066 658.266 414.2 657.733 414.6C657.066 414.866 656.666 405.933 656.666 394.6V374.2L672.4 362.6C680.933 356.333 688.4 351 688.8 351C689.333 351 690.266 352.6 691.066 354.6ZM291.333 390.333C297.2 398.333 301.733 405.133 301.466 405.4C301.2 405.666 297.333 403.266 292.933 400.066C285.466 394.866 284.666 393.666 282.133 385.666C279.333 377 278.8 373.933 280 375.266C280.4 375.533 285.466 382.466 291.333 390.333ZM627.066 385C624.4 393.266 623.466 394.466 616.266 399.933C611.866 403.133 608 405.4 607.733 405.133C607.333 404.866 609.6 401.133 612.533 397.133C615.6 393 620.4 386.333 623.466 382.2C626.4 378.2 629.2 375 629.466 375.266C629.733 375.666 628.666 379.933 627.066 385ZM270.8 387.533L282.8 396.333L287.2 409.933C289.733 417.533 292 424.466 292.266 425.266C293.333 427.933 291.066 427.4 272.533 421.533L255.333 416.066V396.733C255.333 381 255.733 377.533 257.2 378.066C258.133 378.466 264.266 382.733 270.8 387.533ZM654 396.733V415.8L636 421.666C626.133 424.866 617.733 427.133 617.2 426.6C616.8 426.2 618.666 419 621.466 410.733L626.666 395.8L639.2 386.733C646 381.8 652.266 377.666 652.8 377.666C653.466 377.666 654 386.2 654 396.733ZM299.2 408.066C306.666 413.533 312.266 419.133 317.866 426.733C327.333 439.4 327.2 439.533 308.8 433.266L296.133 429L291.733 415.666C287.333 402.066 286.8 400.333 288 400.333C288.4 400.333 293.333 403.8 299.2 408.066ZM621.733 401.933C621.333 402.866 619.2 409.4 616.8 416.333L612.666 429.133L599.333 433.533C592 435.933 585.333 437.666 584.8 437.4C584.133 437.133 586.933 432.333 591.066 426.6C596.4 419.266 601.866 413.8 609.333 408.333C620.133 400.333 622.8 399 621.733 401.933ZM277.2 426.066L294.266 431.8L300.133 449.666C303.333 459.533 306 468.067 306 468.6C306 469.267 298.8 469.667 290 469.667C269.2 469.667 263.466 467.133 257.466 455.4C255.866 452.2 255.333 447.266 255.333 435C255.333 420.2 255.466 418.866 257.733 419.533C258.933 419.933 267.733 422.866 277.2 426.066ZM653.866 436.066C653.333 452.2 653.066 453.533 649.6 458.6C647.6 461.533 643.6 465.133 640.666 466.867C636 469.533 634 469.667 618.933 469.4L602.533 469L608.533 450.333L614.666 431.666L633.333 425.4C643.6 422.066 652.533 419.133 653.2 419.133C653.733 419 654 426.733 653.866 436.066ZM337.2 435.666C351.066 445.8 353.066 447.4 349.733 446.333C331.2 440.6 330.8 440.466 324.933 432.066C321.733 427.666 320 424.333 321.066 424.733C322.133 425.133 329.466 430.066 337.2 435.666ZM586 428.6C584.4 431 582.133 434.6 580.933 436.733C579.2 439.533 576.266 441.133 568.133 443.666C562.4 445.533 557.466 446.866 557.333 446.733C556.8 446.2 586.4 424.6 587.733 424.466C588.4 424.333 587.6 426.333 586 428.6ZM315.2 438.333L329.733 443L338.133 454.733C342.666 461.133 347.066 467.133 347.733 467.933C348.666 469.267 344.8 469.667 329.066 469.667H309.2L304.133 453.266C301.2 444.333 298.666 436.2 298.266 435.266C297.466 432.866 299.333 433.266 315.2 438.333ZM609.333 439.266C603.466 458.333 600.266 467.8 599.466 468.733C598.933 469.267 589.866 469.533 579.466 469.4L560.533 469L569.6 456.066L578.666 443.266L592.666 438.6C611.6 432.333 611.466 432.333 609.333 439.266ZM349.6 449.533C359.066 452.6 364.266 455.266 372.666 461.4L383.6 469.533L368.533 469.933C355.733 470.333 353.2 470.067 351.333 468.067C347.466 463.8 335.2 445.666 336.266 445.666C336.8 445.666 342.8 447.4 349.6 449.533ZM565.2 457.666L556.4 469.667H540.933C532.133 469.667 526 469.133 526.8 468.467C534 461.8 549.066 452.866 558.266 449.666C575.066 443.933 575.2 444.066 565.2 457.666ZM393.066 463.666C401.733 466.333 408.666 468.733 408.4 469C408.133 469.267 403.733 469.667 398.533 469.8C389.333 470.067 388.933 469.933 381.6 464.333C374.266 458.866 372.266 456.733 375.733 458.066C376.533 458.333 384.4 460.866 393.066 463.666ZM535.333 458.2C535.333 458.466 531.6 461.4 527.066 464.6C518.666 470.333 518.666 470.333 508.666 469.8L498.666 469.267L516 463.533C533.866 457.666 535.333 457.266 535.333 458.2ZM434 477C440.266 479 445.866 481.133 446.4 481.667C447.066 482.2 441.2 484.867 433.466 487.4L419.333 492.067L407.333 483.267L395.333 474.333L407.6 473.667C422.266 472.867 419.866 472.6 434 477ZM512.666 474.733C512.533 475.267 507.333 479.4 500.933 483.933L489.2 492.067L474.933 487.267C467.066 484.6 461.066 482.067 461.6 481.533C462.4 480.867 481.466 474.733 487.6 473.267C490.266 472.6 512.666 473.933 512.666 474.733ZM363.333 489.267C369.6 497.933 374.8 505.267 375.066 505.8C375.6 507 347.866 515.267 342.8 515.267C329.2 515.267 322.4 508.867 316 489.667C313.466 482.067 311.333 475.267 311.333 474.733C311.333 474.2 320.533 473.667 331.733 473.667H352L363.333 489.267ZM402.4 483.133C409.466 488.333 415.333 492.733 415.333 493C415.333 493.267 410.133 495 403.733 497C397.333 499 389.066 501.8 385.2 503L378.266 505.4L367.466 490.467C361.466 482.2 356.666 475 356.666 474.467C356.666 474.067 364 473.667 373.066 473.667H389.466L402.4 483.133ZM472.666 474.2C472.666 474.467 468.4 476.067 463.333 477.667L454 480.6L444.266 477.267L434.666 473.933L453.733 473.8C464.133 473.667 472.666 473.933 472.666 474.2ZM552.666 474.467C552.666 476.6 530.8 504.333 529.066 504.333C526 504.333 494 493.667 494.133 492.6C494.133 492.067 499.6 487.667 506.4 482.733L518.666 473.933L535.733 473.8C545.066 473.667 552.666 473.933 552.666 474.467ZM598 473.933C597.866 477.8 588.133 503.133 585.6 506.333C581.333 511.8 574 515.267 566.933 515.267C562.4 515.267 536.133 508.067 534.133 506.333C534 506.067 538.933 498.6 545.333 489.8L556.8 473.667H577.466C588.8 473.667 598 473.8 598 473.933ZM484.266 494.467C484.4 495.133 477.733 500.6 469.466 506.6L454.266 517.4L438.8 506.067C430.266 499.8 423.466 494.333 423.866 494.067C424.266 493.667 431.333 491.133 439.6 488.333L454.666 483.4L469.2 488.333C477.333 491 484 493.8 484.266 494.467ZM435.866 507.267C444.4 513.4 451.333 518.733 451.333 519.133C451.333 519.533 445.466 524.067 438.4 529.133L425.333 538.333H415.866C407.6 538.333 405.866 537.933 401.6 534.733C397.2 531.267 379.733 508.733 380.8 507.8C382.4 506.467 417.6 495.267 418.933 495.667C419.733 495.933 427.333 501.133 435.866 507.267ZM509.733 501.4L528.933 507.667L519.733 520.333C508.8 535.267 503.466 539 492.933 539C489.066 539 484.533 538.333 482.933 537.533C477.066 534.333 457.866 519.933 458.266 518.867C458.666 517.667 488.8 495.267 490 495.267C490.4 495.133 499.333 497.933 509.733 501.4Z" fill="white"/>
<path d="M316.266 627.133C299.6 629.533 282.933 641.267 277.333 654.467C272.133 666.733 273.866 686.467 280.933 697C287.866 707.133 295.2 711.4 320.933 720.467C342.533 728.067 348 730.733 352.933 735.933C357.733 740.867 359.333 745.667 359.333 754.467C359.333 771.933 347.066 784.067 326.933 786.467C313.066 788.067 299.466 783.133 290.133 772.867L284.266 766.6L280.133 768.867C277.866 770.067 274.533 772.2 272.666 773.667L269.333 776.2L275.866 782.867C288.533 795.8 303.6 801 325.333 800.067C342.8 799.267 351.6 795.933 361.466 786.333C372 775.933 374.666 769.4 374.666 753.667C374.533 738.733 372 731.8 363.866 723.8C357.066 717.133 350.133 713.8 329.6 707.133C303.466 698.733 295.866 694.067 291.866 683.667C289.2 676.333 289.733 664.6 293.333 657.133C302.8 637.4 340.933 634.733 356.133 652.733L359.333 656.467L365.2 652.333C368.533 650.2 371.466 647.8 372 647.133C372.933 645.533 361.466 635.533 355.333 632.333C345.6 627.4 329.333 625.133 316.266 627.133Z" fill="white"/>
<path d="M1.60033 630.6C1.06699 631 0.666992 668.6 0.666992 713.933V796.333H32.5337C50.0003 796.333 67.467 795.667 71.3337 795C87.2003 791.933 100.8 782.2 106.267 770.2C109.6 762.467 110.8 747.933 108.667 739.267C105.334 725.133 94.267 713.933 80.667 710.733L73.867 709.133L79.7337 707C88.8003 703.533 94.9337 698.2 98.8003 690.2C102 683.667 102.267 681.933 101.734 670.6C101.334 661 100.534 656.867 98.0003 651.8C91.7337 639.533 80.267 633.133 60.5337 631C46.4003 629.533 2.93366 629.133 1.60033 630.6ZM64.667 645.8C68.4003 646.6 73.867 649.133 77.067 651.533C90.4003 661.667 90.667 684.333 77.6003 694.333C69.6003 700.333 62.5337 701.667 38.4003 701.667H16.667V673V644.333H37.3337C48.5337 644.333 60.9337 645 64.667 645.8ZM69.7337 718.333C78.667 721 87.067 727.533 90.9337 734.867C94.9337 742.6 95.2003 756.733 91.467 764.067C83.867 778.867 72.0003 782.867 35.067 783H16.667V749.667V716.333H39.7337C56.5337 716.333 64.667 716.867 69.7337 718.333Z" fill="white"/>
<path d="M177.067 687.533C164.133 691.8 150.667 703.133 145.333 714.6C136.933 732.333 137.6 757.4 146.933 773.267C151.867 781.8 164.267 792.6 172.8 795.667C183.6 799.667 207.733 799.4 218.533 795.133C226 792.2 240.667 780.067 240.667 776.867C240.667 776.2 238.533 773.933 235.867 771.8L231.067 768.067L224.933 774.2C216.667 782.467 207.067 786.2 194 786.2C186.533 786.2 182.267 785.4 176.933 783C164.4 777.533 154 762.6 154 750.067V745.667H199.333H244.667V738.6C244.667 723.533 237.6 706.333 228 698.067C217.733 689.133 210.8 686.6 196 686.067C187.2 685.8 180.8 686.333 177.067 687.533ZM209.733 701.933C216.133 704.867 223.867 712.2 226.8 717.933C227.867 719.933 229.067 724.333 229.6 727.667L230.4 733.667H192.133C149.6 733.667 152.533 734.467 155.6 724.067C157.2 718.467 164.933 708.867 171.733 704.067C181.2 697.267 198.133 696.333 209.733 701.933Z" fill="white"/>
<path d="M438.399 687.533C419.999 693.533 405.999 709.4 401.866 728.6C399.733 738.067 401.066 755.4 404.399 764.867C409.466 778.733 421.066 790.733 434.666 795.8C444.933 799.667 469.199 799.267 479.866 795.133C487.333 792.2 501.999 780.067 501.999 776.867C501.999 776.2 499.866 773.933 497.333 771.933L492.533 768.2L485.199 774.867C459.333 798.6 418.533 784.2 415.066 750.333L414.666 746.333L460.399 745.933L505.999 745.667V739.8C505.999 717.933 495.333 699.133 477.733 690.2C471.733 687.133 468.666 686.467 457.333 686.067C448.533 685.8 442.133 686.333 438.399 687.533ZM470.799 701.8C477.333 704.867 485.199 712.2 487.999 717.667C489.199 719.8 490.399 724.333 490.933 727.667L491.733 733.667H453.466H415.333V730.333C415.333 723.133 423.733 711.133 434.399 703C441.866 697.4 460.399 696.733 470.799 701.8Z" fill="white"/>
<path d="M571.2 687.4C547.866 694.067 531.333 716.467 531.333 741.533C531.333 773.133 552.133 796.6 582 798.6C596.533 799.667 607.066 797.267 616.8 790.6C623.466 786.2 628.8 780.733 627.066 779.933C626.8 779.8 624.666 777.933 622.4 775.8L618.133 771.933L612.933 776.6C589.6 797.667 551.733 783.4 546 751.4C542.266 730.333 552.533 709.4 570.533 701.533C575.6 699.267 579.866 698.467 587.333 698.467C598.266 698.467 602.666 700.067 612.133 707.8L617.6 712.2L622.4 708.733C625.2 706.867 627.333 704.467 627.333 703.533C627.333 701.267 616.933 693.4 608.933 689.4C601.333 685.8 580.933 684.733 571.2 687.4Z" fill="white"/>
<path d="M814 688.467C810.666 689.933 804.8 694.467 801.066 698.6L794 706.2V697.267V688.333H786.533H779.066L779.866 692.467C780.266 694.733 780.666 719.133 780.666 746.467V796.333H788H795.333V762.6C795.333 743.933 796 726.867 796.666 724.067C800.666 709.667 812.4 700.467 827.6 699.667L836 699.133L836.4 692.467L836.8 685.667H828.4C822.8 685.667 818 686.6 814 688.467Z" fill="white"/>
<path d="M894.667 686.467C877.6 690.734 862.533 704.334 856.533 721.134C852.533 732.067 852.4 752.467 856.4 763.267C861.2 776.334 870.533 787.8 881.067 793.134C896 801 921.067 800.867 936.667 793C942.133 790.334 954 779.134 954 776.734C954 775.934 951.867 773.534 949.333 771.667L944.8 768.067L940.667 772.867C935.2 779 922 785.4 912.667 786.467C898.4 788.067 883.2 781.667 875.333 770.734C871.2 765.134 867.333 754.334 867.333 748.734V745.667H912.8H958.4L957.733 733.8C957.2 725 956.133 720.067 953.6 714.6C949.067 704.734 939.467 694.6 930.267 690.067C923.867 687 920.8 686.334 910 686.067C903.067 685.934 896.133 686.067 894.667 686.467ZM923.467 701.8C934.933 707.534 942.667 717.8 943.6 728.334L944 733L905.467 733.4L866.933 733.667L867.733 730.067C870.8 715 883.333 702.067 898 698.867C904.933 697.4 917.733 698.867 923.467 701.8Z" fill="white"/>
<path d="M648.667 721.933C648.667 740.467 649.334 759.8 650 764.733C653.467 788.6 667.6 799.933 692.534 798.867C705.6 798.2 716.534 793.133 722.667 784.733C724.8 781.667 727.067 779.133 727.734 779.133C728.267 779 728.667 782.867 728.667 787.667V796.333H736.134H743.734L742.8 786.067C742.4 780.467 742 756.2 742 732.067V688.333H734.8H727.467L727.067 723.267C726.667 756.867 726.534 758.6 723.467 765.267C714.134 786.067 686 793.933 671.867 779.8C664.267 772.2 663.334 765.933 663.334 724.733V688.333H656H648.667V721.933Z" fill="white"/>
</g>
<defs>
<clipPath id="clip0_210_2">
<rect width="959" height="801" fill="white"/>
</clipPath>
</defs>
</svg>
